HIERARCHY
ROOT Hips
{
	OFFSET 0.00000 0.00000 0.00000
	CHANNELS 6 Xposition Yposition Zposition Yrotation Zrotation Xrotation 
	JOINT Lumbar
	{
		OFFSET 0 0 0
		CHANNELS 3 Zrotation Xrotation Yrotation
		JOINT Neck
		{
			OFFSET 0.00 0.2701 0.00
			CHANNELS 3 Zrotation Xrotation Yrotation
			End Site
			{
				OFFSET 0.00 0.1379 0.00
			}
		}
		JOINT RightShoulder
		{
			OFFSET 0.0119 0.2289 0.1181
			CHANNELS 3 Zrotation Xrotation Yrotation
			JOINT RightElbow
			{
				OFFSET 0.00 -0.1475 0.00
				CHANNELS 2 Zrotation Yrotation
				JOINT RightWrist
				{
					OFFSET 0.00 -0.1605 0.00
					CHANNELS 2 Zrotation Xrotation
					End Site
					{
						OFFSET 0.0040 -0.1068 0.0006
					}
				}
			}
		}
		JOINT LeftShoulder
		{
			OFFSET 0.0119 0.2289 -0.1181
			CHANNELS 3 Zrotation Xrotation Yrotation
			JOINT LeftElbow
			{
				OFFSET 0.00 -0.1475 0.00
				CHANNELS 2 Zrotation Yrotation
				JOINT LeftWrist
				{
					OFFSET 0.00 -0.1605 0.00
					CHANNELS 2 Zrotation Xrotation
					End Site
					{
						OFFSET 0.0040 -0.1068 -0.0006
					}
				}
			}
		}
	}
	JOINT RightHip
	{
		OFFSET 0.0316 -0.0424 0.0458
		CHANNELS 3 Zrotation Xrotation Yrotation
		JOINT RightKnee
		{
			OFFSET 0.00 -0.2438 0.00
			CHANNELS 1 Zrotation
			JOINT RightAnkle
			{
				OFFSET 0.00 -0.2449 0.00
				CHANNELS 3 Zrotation Xrotation Yrotation
				End Site
				{
					OFFSET 0.1237 -0.0542 0.0051
				}
			}
		}
	}
	JOINT LeftHip
	{
		OFFSET 0.0316 -0.0424 -0.0458
		CHANNELS 3 Zrotation Xrotation Yrotation
		JOINT LeftKnee
		{
			OFFSET 0.00 -0.2438 0.00
			CHANNELS 1 Zrotation
			JOINT LeftAnkle
			{
				OFFSET 0.00 -0.2449 0.00
				CHANNELS 3 Zrotation Xrotation Yrotation
				End Site
				{
					OFFSET 0.1237 -0.0542 -0.0051
				}
			}
		}
	}
}
MOTION
Frames: 29
Frame Time: 0.02
0.01331 0.57145 -0.20649 184.1776 0 0.90543 2.85807 2.2066 1.45452 -16.53531 -4.17745 -0.10561 9.66873 -21.36533 12.39273 114.23136 111.91974 16.2933 4.14542 139.54454 21.75713 -51.17491 76.75397 -83.94679 -37.75549 3.39229 2.32956 9.9031 5.15492 -18.28772 8.74166 -6.78784 -10.46719 19.69571 7.2131 -4.15897 -34.13825 0.68691 4.02061 12.42696
0.01333 0.57147 -0.20724 183.31442 0 0.98668 2.74366 2.41532 1.71414 -16.32072 -3.69537 0.19608 8.74596 -21.54632 11.42215 114.06228 111.90603 16.88996 3.97433 139.74194 25.84979 -49.37729 75.07023 -80.62151 -39.21428 2.96905 2.37615 9.94264 5.88699 -18.41482 8.69135 -6.75202 -10.46496 19.77982 7.22765 -4.01988 -34.14181 1.05283 4.07831 12.04467
0.01324 0.57154 -0.20767 182.52345 0 1.14692 2.64848 2.63693 1.96609 -15.97743 -3.16596 0.49113 7.62876 -21.77865 10.41317 113.82655 111.82574 17.56122 3.77221 138.36904 30.53935 -47.04895 73.32507 -77.34074 -39.94093 2.65356 2.47198 9.89569 6.63433 -18.67591 8.68471 -6.7637 -10.57288 19.72681 7.10567 -3.90002 -33.74626 1.48106 4.14353 11.58873
0.01319 0.57158 -0.20822 181.72148 0 1.26858 2.54792 2.85105 2.19132 -15.69648 -2.63255 0.7799 6.62435 -22.02409 9.44975 113.62083 111.79264 18.21164 3.58594 137.5151 34.95188 -44.85108 71.62043 -74.0449 -40.96696 2.28306 2.5417 9.88811 7.3575 -18.87103 8.66119 -6.75622 -10.63007 19.73036 7.04455 -3.76334 -33.5077 1.87579 4.20694 11.18463
0.0132 0.57165 -0.20884 180.81759 0 1.40181 2.43106 3.0744 2.5425 -15.39238 -2.19132 1.11097 5.51895 -22.13217 8.37106 113.41589 111.70121 18.82347 3.39069 137.46915 39.46083 -43.08601 69.86066 -70.64049 -42.15696 1.9191 2.62549 9.87977 8.16174 -19.08543 8.62441 -6.73768 -10.68809 19.75576 6.98957 -3.65392 -33.36891 2.29584 4.26486 10.70383
0.01305 0.57167 -0.20925 180.14856 0 1.52907 2.35365 3.28083 2.63168 -15.10935 -1.55573 1.35101 4.57642 -22.53005 7.52212 113.19359 111.70985 19.5229 3.20809 135.3797 43.86923 -40.33175 68.20507 -67.51227 -42.8241 1.57513 2.69207 9.85285 8.79588 -19.29184 8.62593 -6.75359 -10.77107 19.7041 6.88891 -3.49712 -32.9303 2.67531 4.33475 10.36333
0.01248 0.57158 -0.20922 180.0903 0 1.6273 2.37867 3.43526 1.98049 -14.90642 -0.36098 1.343 4.13711 -23.73984 7.31624 112.93972 112.01716 20.49645 3.05939 127.9539 48.02301 -34.67462 66.81796 -65.06237 -42.20603 1.25123 2.70202 9.79334 8.97697 -19.44953 8.72234 -6.85529 -10.89922 19.4722 6.69573 -3.17787 -31.74255 2.9434 4.44502 10.44905
0.01174 0.57145 -0.209 180.27096 0 1.71575 2.44317 3.57203 1.06994 -14.73171 1.01815 1.24269 3.86702 -25.23107 7.34258 112.67043 112.42403 21.54412 2.9262 118.54906 52.01496 -28.10306 65.54759 -62.91512 -41.08607 0.94804 2.69272 9.71844 8.98155 -19.59394 8.85594 -6.98983 -11.0486 19.16811 6.46096 -2.81602 -30.2709 3.16508 4.56529 10.6751
0.01107 0.57133 -0.20884 180.35627 0 1.80406 2.49122 3.71823 0.28968 -14.55131 2.29074 1.18336 3.51542 -26.57801 7.26253 112.40858 112.78023 22.52345 2.79168 110.09195 55.96268 -22.14138 64.24136 -60.68742 -40.20745 0.64355 2.6905 9.65249 9.05273 -19.74066 8.97274 -7.1079 -11.18629 18.89787 6.24514 -2.49184 -28.94141 3.39751 4.6749 10.82298
0.01041 0.57123 -0.20874 180.3873 0 1.91376 2.53421 3.85995 -0.54566 -14.33647 3.66743 1.12872 3.17677 -28.00409 7.18467 112.14375 113.15941 23.65329 2.63199 101.34307 60.43136 -15.3175 62.84554 -58.21405 -39.25299 0.30781 2.69675 9.57604 9.18232 -19.90722 9.0906 -7.23379 -11.33569 18.61788 6.02499 -2.09057 -27.54116 3.67652 4.8106 11.02768
0.0097 0.57109 -0.20849 180.58822 0 1.97646 2.59612 4.00544 -1.32481 -14.20139 4.86263 1.04149 2.85356 -29.32153 7.15805 111.88083 113.51249 24.48453 2.52873 92.79352 63.76619 -10.10833 61.68354 -56.32988 -38.34023 0.0413 2.68046 9.51794 9.14777 -20.02822 9.21457 -7.35102 -11.46519 18.34353 5.80494 -1.84001 -26.22775 3.84577 4.89425 11.15005
0.00885 0.57085 -0.20787 181.19152 0 1.90349 2.70655 4.17549 -1.90984 -14.28458 5.57667 0.8947 2.53576 -30.35309 7.21522 111.64029 113.79166 24.48622 2.57832 84.93551 64.01989 -9.32628 60.98146 -55.95263 -37.72165 -0.04415 2.60361 9.52329 8.70512 -20.02021 9.34552 -7.43216 -11.52638 18.09756 5.60285 -2.01173 -25.21165 3.73092 4.83139 10.99573
0.00794 0.57058 -0.20711 181.95885 0 1.78466 2.83319 4.3479 -2.42429 -14.44723 6.08886 0.71655 2.22835 -31.24917 7.31653 111.40022 114.03691 24.18197 2.6841 77.4194 63.13066 -10.24363 60.54195 -56.16693 -37.15422 -0.06046 2.50495 9.54641 8.10259 -19.96714 9.48121 -7.5039 -11.56757 17.86154 5.4016 -2.33708 -24.29734 3.50567 4.71586 10.75645
0.00707 0.57034 -0.20639 182.65605 0 1.69196 2.94872 4.51294 -2.95548 -14.57037 6.65096 0.54803 1.91375 -32.15333 7.39806 111.1513 114.28361 24.00872 2.76386 69.97843 62.75776 -10.56277 60.08351 -56.14007 -36.53169 -0.10528 2.41813 9.55588 7.57229 -19.93851 9.61515 -7.58258 -11.62297 17.62466 5.19568 -2.59516 -23.34586 3.32542 4.62459 10.56682
0.00617 0.57006 -0.20574 183.3426 0 1.57689 3.08247 4.70461 -3.56231 -14.707 7.39769 0.39707 1.61323 -33.29572 7.48546 110.93754 114.59397 23.87199 2.84646 61.49007 62.40222 -10.14579 59.19854 -56.00525 -36.03075 -0.16051 2.32293 9.58818 7.03901 -19.89362 9.74903 -7.65157 -11.65839 17.36901 5.0062 -2.84205 -22.34444 3.16464 4.5322 10.3372
0.00531 0.56984 -0.20493 184.08767 0 1.49731 3.18031 4.84076 -3.98916 -14.83625 7.70752 0.20172 1.28633 -33.90287 7.56941 110.65177 114.76083 23.58562 2.93593 55.29561 61.7291 -11.63856 59.27123 -56.23396 -35.28899 -0.17927 2.23973 9.57749 6.47455 -19.87098 9.88329 -7.73757 -11.72934 17.15668 4.7834 -3.148 -21.47671 2.93868 4.42964 10.16669
0.00454 0.56981 -0.20375 184.94684 0 1.52969 3.18558 4.83019 -3.9543 -14.90673 6.87767 -0.09337 0.86114 -33.09224 7.62003 110.16007 114.55256 22.96032 3.03354 55.32677 60.56248 -18.3327 61.84614 -57.30347 -33.9372 -0.10141 2.19939 9.44273 5.88049 -19.92984 10.02025 -7.87683 -11.91204 17.0536 4.46779 -3.59002 -20.9399 2.55133 4.31097 10.19946
0.0038 0.56985 -0.20241 185.85794 0 1.59888 3.15185 4.76243 -3.73604 -14.97028 5.61222 -0.43339 0.41271 -31.74249 7.66655 109.59775 114.19823 22.19502 3.13545 57.67276 59.09826 -26.83199 65.38504 -58.72071 -32.33827 0.00923 2.17104 9.26437 5.25965 -20.01099 10.15665 -8.03254 -12.12938 16.99501 4.11925 -4.0839 -20.53767 2.10398 4.18411 10.29107
0.00306 0.56985 -0.20115 186.75079 0 1.64947 3.12903 4.71621 -3.58865 -15.04953 4.53217 -0.76363 -0.01121 -30.61869 7.72275 109.07181 113.90177 21.49344 3.23344 58.9814 57.70147 -34.28238 68.53911 -59.98875 -30.80198 0.09512 2.13457 9.10669 4.63874 -20.07607 10.29134 -8.17802 -12.32505 16.92248 3.78602 -4.548 -20.0846 1.68984 4.06144 10.3415
0.0023 0.56985 -0.19988 187.63306 0 1.70641 3.13609 4.68876 -3.49178 -15.07928 3.49282 -1.05433 -0.49448 -29.5653 7.74911 108.52582 113.63981 20.77962 3.34189 60.22547 56.54615 -42.75068 71.49686 -61.23879 -29.44818 0.22108 2.10906 8.94591 4.05789 -20.16474 10.4348 -8.33513 -12.54527 16.8264 3.4501 -5.04581 -19.59302 1.24674 3.9346 10.44706
0.00157 0.56989 -0.19859 188.53985 0 1.75939 3.07077 4.60872 -3.24683 -15.20855 2.27466 -1.43235 -0.85862 -28.24582 7.8342 108.00727 113.27211 20.06356 3.42859 62.16632 54.83823 -49.51257 75.0648 -62.60313 -27.69094 0.27542 2.06326 8.78109 3.39677 -20.21005 10.55947 -8.47164 -12.72258 16.7865 3.11351 -5.48104 -19.21017 0.85116 3.81568 10.45655
0.00097 0.57001 -0.1973 189.56609 0 1.79359 2.82078 4.39666 -2.63994 -15.62122 0.61208 -2.08561 -0.8989 -26.26485 8.09799 107.56038 112.64525 19.36381 3.45603 65.32001 51.6368 -51.05 80.28756 -64.17238 -24.57102 0.07952 1.96376 8.61473 2.45824 -20.1317 10.6352 -8.5507 -12.77536 16.91988 2.76943 -5.7535 -19.11457 0.60261 3.71678 10.15495
0.0004 0.57018 -0.196 190.6023 0 1.82267 2.49829 4.13397 -1.89073 -16.13222 -1.20335 -2.8167 -0.81678 -24.04651 8.41799 107.1473 111.91808 18.67052 3.46084 69.11735 47.90769 -50.81101 86.05067 -65.84256 -21.10995 -0.18268 1.8426 8.44569 1.45238 -20.0091 10.6916 -8.60794 -12.78347 17.10315 2.42808 -5.95647 -19.12043 0.40467 3.62718 9.76095
-0.0002 0.57034 -0.1947 191.59081 0 1.85341 2.20498 3.89475 -1.20512 -16.59372 -2.9107 -3.48228 -0.78342 -21.97564 8.70167 106.73306 111.23842 17.98333 3.47447 72.71764 44.44628 -51.42533 91.43104 -67.48526 -18.00909 -0.38443 1.72795 8.2788 0.51896 -19.90572 10.75489 -8.67279 -12.8104 17.24406 2.09483 -6.1752 -19.06515 0.18293 3.53605 9.43021
-0.00072 0.57048 -0.19344 192.76355 0 1.88772 1.92563 3.65088 -0.51585 -17.07684 -4.79795 -4.27631 -0.77893 -19.71776 9.03027 106.25732 110.544 17.25225 3.49435 76.00924 40.83602 -51.91606 97.42727 -69.0788 -14.03829 -0.70877 1.62756 8.10745 -0.5924 -19.80598 10.82574 -8.74752 -12.84443 17.46825 1.72222 -6.46141 -19.07442 -0.03909 3.433 9.01147
-0.00141 0.57065 -0.19208 193.55419 0 1.91354 1.60127 3.40633 0.19499 -17.53649 -6.33919 -4.82119 -0.68609 -17.80124 9.27928 105.91744 109.86034 16.61683 3.49593 80.04969 37.43957 -52.21037 102.25281 -70.77409 -11.79553 -0.79927 1.49242 7.94411 -1.34842 -19.68898 10.87676 -8.79683 -12.85309 17.53199 1.43111 -6.59142 -18.97614 -0.24586 3.35738 8.75356
-0.00255 0.57089 -0.19047 193.28703 0 1.91173 1.16421 3.16489 0.9478 -17.92322 -6.90055 -4.65454 -0.36939 -16.87931 9.29016 105.95523 109.21632 16.23852 3.45128 86.12383 34.55127 -52.45129 103.73754 -72.89711 -14.45822 -0.18202 1.26441 7.8138 -1.10889 -19.52546 10.87348 -8.7764 -12.79845 17.12476 1.37776 -6.29216 -18.51521 -0.43822 3.35299 8.95961
-0.00388 0.57114 -0.18875 192.63498 0 1.90245 0.686 2.92633 1.71282 -18.27988 -7.10348 -4.23525 0.03011 -16.3136 9.22021 106.12693 108.59083 15.95836 3.38931 92.88792 31.93744 -52.53339 104.0153 -75.08715 -18.85999 0.66443 1.00249 7.68983 -0.50896 -19.34787 10.85173 -8.73201 -12.72046 16.55674 1.40395 -5.83994 -17.94885 -0.61377 3.37636 9.33039
-0.00514 0.57139 -0.18705 192.15876 0 1.89994 0.23048 2.69144 2.46059 -18.64 -7.46012 -3.93408 0.38555 -15.59073 9.18982 106.23061 107.96622 15.63712 3.33591 99.25211 29.33822 -52.64712 104.82593 -77.12979 -22.4384 1.37534 0.75755 7.55657 -0.07231 -19.18287 10.84117 -8.70168 -12.65571 16.07284 1.3852 -5.46816 -17.45763 -0.78674 3.38855 9.62793
